<?xml version="1.0" encoding="UTF-8" standalone="no"?>
<svg width="122px" height="105px" viewBox="0 0 122 105" version="1.1" xmlns="http://www.w3.org/2000/svg" xmlns:xlink="http://www.w3.org/1999/xlink" xmlns:sketch="http://www.bohemiancoding.com/sketch/ns">
    <!-- Generator: Sketch 3.3.3 (12081) - http://www.bohemiancoding.com/sketch -->
    <title>html-study</title>
    <desc>Created with Sketch.</desc>
    <defs></defs>
    <g id="Page-1" stroke="none" stroke-width="1" fill="none" fill-rule="evenodd" sketch:type="MSPage">
        <g id="lesson-list" sketch:type="MSLayerGroup" transform="translate(-30.000000, 0.000000)">
            <g id="html-study" transform="translate(30.000000, 0.000000)" sketch:type="MSShapeGroup">
                <path d="M107.818,57.753 C107.818,82.788 87.523,103.084 62.487,103.084 C37.452,103.084 17.157,82.788 17.157,57.753 C17.157,32.717 37.452,12.422 62.487,12.422 C87.523,12.422 107.818,32.717 107.818,57.753" id="Fill-1" fill="#DAF6F2"></path>
                <path d="M91.417,39.584 L34.386,39.584 C33.505,39.584 32.789,40.3 32.789,41.18 L32.789,92.494 C40.665,99.1 50.815,103.084 61.898,103.084 C73.949,103.084 84.894,98.372 93.013,90.701 L93.013,41.18 C93.013,40.3 92.297,39.584 91.417,39.584" id="Fill-2" fill="#FFFFFF"></path>
                <path d="M91.417,39.584 L91.417,39.084 L34.386,39.084 C33.228,39.085 32.29,40.023 32.289,41.18 L32.289,92.728 L32.468,92.878 C40.429,99.556 50.694,103.584 61.898,103.584 C74.081,103.584 85.149,98.819 93.357,91.065 L93.514,90.917 L93.514,41.18 C93.512,40.023 92.574,39.085 91.417,39.084 L91.417,40.084 C92.02,40.085 92.512,40.577 92.513,41.18 L92.513,90.701 L93.013,90.701 L92.67,90.338 C84.638,97.925 73.818,102.583 61.898,102.583 C50.936,102.583 40.9,98.645 33.111,92.111 L32.789,92.494 L33.289,92.494 L33.289,41.18 C33.29,40.577 33.782,40.085 34.386,40.084 L91.417,40.084 L91.417,39.584" id="Fill-3" fill="#00BDA6"></path>
                <path d="M65.404,65.296 L88.159,65.296 C88.435,65.296 88.659,65.072 88.659,64.796 C88.659,64.52 88.435,64.296 88.159,64.296 L65.404,64.296 C65.127,64.296 64.904,64.52 64.904,64.796 C64.904,65.072 65.127,65.296 65.404,65.296" id="Fill-4" fill="#00BDA6"></path>
                <path d="M91.417,39.584 L91.417,39.084 L34.386,39.084 C33.228,39.085 32.29,40.023 32.289,41.18 L32.289,92.494 C32.289,92.643 32.354,92.782 32.468,92.878 C40.429,99.556 50.694,103.584 61.898,103.584 C74.081,103.584 85.149,98.819 93.357,91.065 C93.457,90.97 93.514,90.839 93.514,90.701 L93.514,41.18 C93.512,40.023 92.574,39.085 91.417,39.084 L91.417,40.084 C92.02,40.085 92.512,40.577 92.513,41.18 L92.513,90.701 L93.013,90.701 L92.67,90.338 C84.638,97.925 73.818,102.583 61.898,102.583 C50.936,102.583 40.9,98.645 33.111,92.111 L32.789,92.494 L33.289,92.494 L33.289,41.18 C33.29,40.577 33.782,40.085 34.386,40.084 L91.417,40.084 L91.417,39.584" id="Fill-5" fill="#00BDA6"></path>
                <path d="M91.591,40.098 L34.212,40.098 C33.69,40.183 33.29,40.636 33.289,41.18 L33.289,50.682 L92.513,50.682 L92.513,41.18 C92.513,40.636 92.112,40.183 91.591,40.098" id="Fill-6" fill="#6BE9D6"></path>
                <path d="M34.212,40.098 L33.144,40.098 L33.144,50.682 L33.289,50.682 L33.289,41.18 C33.29,40.636 33.69,40.183 34.212,40.098 M92.819,40.098 L91.591,40.098 C92.112,40.183 92.513,40.636 92.513,41.18 L92.513,50.682 L92.819,50.682 L92.819,40.098" id="Fill-7" fill="#05CEB3"></path>
                <path d="M88.423,8.787 C88.423,9.341 87.974,9.79 87.42,9.79 C86.866,9.79 86.417,9.341 86.417,8.787 C86.417,8.233 86.866,7.784 87.42,7.784 C87.974,7.784 88.423,8.233 88.423,8.787" id="Fill-8" fill="#00BDA6"></path>
                <path d="M16.53,26.004 C16.53,26.558 16.081,27.007 15.527,27.007 C14.974,27.007 14.525,26.558 14.525,26.004 C14.525,25.45 14.974,25.001 15.527,25.001 C16.081,25.001 16.53,25.45 16.53,26.004" id="Fill-9" fill="#00BDA6"></path>
                <path d="M64.497,12.422 C64.497,13.322 63.767,14.051 62.868,14.051 C61.968,14.051 61.239,13.322 61.239,12.422 C61.239,11.522 61.968,10.793 62.868,10.793 C63.767,10.793 64.497,11.522 64.497,12.422" id="Fill-10" fill="#00BDA6"></path>
                <path d="M18.786,57.753 C18.786,58.653 18.056,59.382 17.157,59.382 C16.257,59.382 15.527,58.653 15.527,57.753 C15.527,56.853 16.257,56.124 17.157,56.124 C18.056,56.124 18.786,56.853 18.786,57.753" id="Fill-11" fill="#00BDA6"></path>
                <path d="M109.447,57.753 C109.447,58.653 108.718,59.382 107.818,59.382 C106.918,59.382 106.189,58.653 106.189,57.753 C106.189,56.853 106.918,56.124 107.818,56.124 C108.718,56.124 109.447,56.853 109.447,57.753" id="Fill-12" fill="#00BDA6"></path>
                <path d="M33.43,51.173 L90.716,51.173 C90.993,51.173 91.217,50.949 91.217,50.673 C91.217,50.397 90.993,50.173 90.716,50.173 L33.43,50.173 C33.154,50.173 32.93,50.397 32.93,50.673 C32.93,50.949 33.154,51.173 33.43,51.173" id="Fill-13" fill="#00BDA6"></path>
                <path d="M5.416,36.855 L10.702,36.855 C10.923,36.855 11.102,36.676 11.102,36.455 C11.102,36.234 10.923,36.055 10.702,36.055 L5.416,36.055 C5.195,36.055 5.016,36.234 5.016,36.455 C5.016,36.676 5.195,36.855 5.416,36.855" id="Fill-14" fill="#00BDA6"></path>
                <path d="M8.459,39.098 L8.459,33.812 C8.459,33.591 8.28,33.412 8.059,33.412 C7.838,33.412 7.659,33.591 7.659,33.812 L7.659,39.098 C7.659,39.319 7.838,39.498 8.059,39.498 C8.28,39.498 8.459,39.319 8.459,39.098" id="Fill-15" fill="#00BDA6"></path>
                <path d="M114.729,74.964 L120.015,74.964 C120.236,74.964 120.415,74.785 120.415,74.564 C120.415,74.343 120.236,74.164 120.015,74.164 L114.729,74.164 C114.508,74.164 114.329,74.343 114.329,74.564 C114.329,74.785 114.508,74.964 114.729,74.964" id="Fill-16" fill="#00BDA6"></path>
                <path d="M117.772,77.207 L117.772,71.921 C117.772,71.7 117.593,71.521 117.372,71.521 C117.151,71.521 116.972,71.7 116.972,71.921 L116.972,77.207 C116.972,77.428 117.151,77.607 117.372,77.607 C117.593,77.607 117.772,77.428 117.772,77.207" id="Fill-17" fill="#00BDA6"></path>
                <path d="M44.181,0.644 L44.181,2.004 C44.181,2.225 44.36,2.404 44.581,2.404 C44.801,2.404 44.981,2.225 44.981,2.004 L44.981,0.644 C44.981,0.423 44.801,0.244 44.581,0.244 C44.36,0.244 44.181,0.423 44.181,0.644" id="Fill-18" fill="#00BDA6"></path>
                <path d="M44.181,5.466 L44.181,6.826 C44.181,7.047 44.36,7.226 44.581,7.226 C44.801,7.226 44.981,7.047 44.981,6.826 L44.981,5.466 C44.981,5.245 44.801,5.066 44.581,5.066 C44.36,5.066 44.181,5.245 44.181,5.466" id="Fill-19" fill="#00BDA6"></path>
                <path d="M47.733,3.397 L46.373,3.397 C46.152,3.397 45.973,3.576 45.973,3.797 C45.973,4.018 46.152,4.197 46.373,4.197 L47.733,4.197 C47.954,4.197 48.133,4.018 48.133,3.797 C48.133,3.576 47.954,3.397 47.733,3.397" id="Fill-20" fill="#00BDA6"></path>
                <path d="M42.881,3.397 L41.521,3.397 C41.3,3.397 41.121,3.576 41.121,3.797 C41.121,4.018 41.3,4.197 41.521,4.197 L42.881,4.197 C43.101,4.197 43.281,4.018 43.281,3.797 C43.281,3.576 43.101,3.397 42.881,3.397" id="Fill-21" fill="#00BDA6"></path>
                <path d="M46.571,1.241 L45.609,2.202 C45.453,2.358 45.453,2.612 45.609,2.768 C45.766,2.924 46.019,2.924 46.175,2.768 L47.137,1.806 C47.293,1.65 47.293,1.397 47.137,1.241 C46.981,1.084 46.727,1.084 46.571,1.241" id="Fill-22" fill="#00BDA6"></path>
                <path d="M47.137,5.664 L46.175,4.702 C46.019,4.546 45.766,4.546 45.609,4.702 C45.453,4.858 45.453,5.112 45.609,5.268 L46.571,6.23 C46.727,6.386 46.981,6.386 47.137,6.23 C47.293,6.073 47.293,5.82 47.137,5.664" id="Fill-23" fill="#00BDA6"></path>
                <path d="M42.015,1.806 L42.976,2.768 C43.133,2.924 43.386,2.924 43.542,2.768 C43.698,2.612 43.698,2.358 43.542,2.202 L42.58,1.241 C42.424,1.084 42.171,1.084 42.015,1.241 C41.859,1.397 41.859,1.65 42.015,1.806" id="Fill-24" fill="#00BDA6"></path>
                <path d="M42.58,6.23 L43.542,5.268 C43.698,5.112 43.698,4.858 43.542,4.702 C43.386,4.546 43.133,4.546 42.976,4.702 L42.015,5.664 C41.859,5.82 41.859,6.073 42.015,6.23 C42.171,6.386 42.424,6.386 42.58,6.23" id="Fill-25" fill="#00BDA6"></path>
                <path d="M98.347,7.953 L97.947,7.953 C97.945,8.855 97.215,9.586 96.312,9.587 C95.409,9.586 94.679,8.855 94.677,7.953 C94.679,7.05 95.409,6.319 96.312,6.318 C97.214,6.319 97.945,7.05 97.947,7.953 L98.747,7.953 C98.746,6.608 97.657,5.518 96.312,5.518 C94.967,5.518 93.877,6.608 93.877,7.953 C93.877,9.297 94.967,10.387 96.312,10.387 C97.657,10.387 98.746,9.297 98.747,7.953 L98.347,7.953" id="Fill-26" fill="#00BDA6"></path>
                <path d="M95.675,16.897 L100.96,16.897 C101.237,16.897 101.46,16.673 101.46,16.397 C101.46,16.121 101.237,15.897 100.96,15.897 L95.675,15.897 C95.398,15.897 95.175,16.121 95.175,16.397 C95.175,16.673 95.398,16.897 95.675,16.897" id="Fill-27" fill="#DAF6F2"></path>
                <path d="M98.818,19.04 L98.818,13.754 C98.818,13.478 98.594,13.254 98.318,13.254 C98.041,13.254 97.818,13.478 97.818,13.754 L97.818,19.04 C97.818,19.316 98.041,19.54 98.318,19.54 C98.594,19.54 98.818,19.316 98.818,19.04" id="Fill-28" fill="#DAF6F2"></path>
                <path d="M118.302,61.413 L118.302,62.511 C118.302,62.787 118.526,63.01 118.802,63.01 C119.078,63.01 119.302,62.787 119.302,62.511 L119.302,61.413 C119.302,61.136 119.078,60.913 118.802,60.913 C118.526,60.913 118.302,61.136 118.302,61.413" id="Fill-29" fill="#DAF6F2"></path>
                <path d="M118.302,65.305 L118.302,66.402 C118.302,66.678 118.526,66.902 118.802,66.902 C119.078,66.902 119.302,66.678 119.302,66.402 L119.302,65.305 C119.302,65.028 119.078,64.805 118.802,64.805 C118.526,64.805 118.302,65.028 118.302,65.305" id="Fill-30" fill="#DAF6F2"></path>
                <path d="M121.347,63.457 L120.249,63.457 C119.973,63.457 119.749,63.681 119.749,63.957 C119.749,64.234 119.973,64.457 120.249,64.457 L121.347,64.457 C121.623,64.457 121.847,64.234 121.847,63.957 C121.847,63.681 121.623,63.457 121.347,63.457" id="Fill-31" fill="#DAF6F2"></path>
                <path d="M117.43,63.457 L116.332,63.457 C116.056,63.457 115.832,63.681 115.832,63.957 C115.832,64.234 116.056,64.457 116.332,64.457 L117.43,64.457 C117.706,64.457 117.93,64.234 117.93,63.957 C117.93,63.681 117.706,63.457 117.43,63.457" id="Fill-32" fill="#DAF6F2"></path>
                <path d="M120.283,61.769 L119.507,62.545 C119.312,62.74 119.312,63.057 119.507,63.252 C119.703,63.447 120.019,63.447 120.214,63.252 L120.99,62.476 C121.186,62.28 121.186,61.964 120.99,61.769 C120.795,61.573 120.479,61.573 120.283,61.769" id="Fill-33" fill="#DAF6F2"></path>
                <path d="M120.99,65.339 L120.214,64.563 C120.019,64.368 119.703,64.368 119.507,64.563 C119.312,64.758 119.312,65.075 119.507,65.27 L120.283,66.046 C120.479,66.241 120.795,66.241 120.99,66.046 C121.186,65.851 121.186,65.534 120.99,65.339" id="Fill-34" fill="#DAF6F2"></path>
                <path d="M116.606,62.476 L117.382,63.252 C117.577,63.447 117.894,63.447 118.089,63.252 C118.284,63.057 118.284,62.74 118.089,62.545 L117.313,61.769 C117.118,61.573 116.801,61.573 116.606,61.769 C116.411,61.964 116.411,62.28 116.606,62.476" id="Fill-35" fill="#DAF6F2"></path>
                <path d="M117.313,66.046 L118.089,65.27 C118.284,65.075 118.284,64.758 118.089,64.563 C117.894,64.368 117.577,64.368 117.382,64.563 L116.606,65.339 C116.411,65.534 116.411,65.851 116.606,66.046 C116.801,66.241 117.118,66.241 117.313,66.046" id="Fill-36" fill="#DAF6F2"></path>
                <path d="M5.416,28.039 L4.916,28.039 C4.915,28.886 4.229,29.572 3.381,29.574 C2.534,29.572 1.848,28.886 1.847,28.039 C1.848,27.191 2.534,26.506 3.381,26.504 C4.229,26.506 4.915,27.191 4.916,28.039 L5.916,28.039 C5.916,26.639 4.781,25.504 3.381,25.504 C1.981,25.504 0.847,26.639 0.847,28.039 C0.847,29.439 1.981,30.574 3.381,30.574 C4.781,30.574 5.916,29.439 5.916,28.039 L5.416,28.039" id="Fill-37" fill="#DAF6F2"></path>
                <path d="M18.694,50.825 C21.645,32.007 36.449,17.108 55.22,14.015 C55.765,13.925 56.134,13.41 56.044,12.865 C55.954,12.32 55.44,11.952 54.895,12.041 C35.268,15.279 19.808,30.839 16.719,50.516 C16.633,51.061 17.006,51.573 17.552,51.658 C18.097,51.744 18.609,51.371 18.694,50.826 L18.694,50.825" id="Fill-38" fill="#00BDA6"></path>
                <path d="M106.234,64.969 C102.789,86.016 84.513,102.086 62.487,102.084 C40.115,102.086 21.611,85.507 18.589,63.971 C18.512,63.424 18.007,63.043 17.46,63.12 C16.913,63.197 16.532,63.702 16.609,64.249 C19.768,86.765 39.104,104.082 62.487,104.084 C85.508,104.081 104.606,87.297 108.208,65.292 C108.297,64.747 107.927,64.233 107.382,64.144 C106.837,64.054 106.323,64.424 106.234,64.969" id="Fill-39" fill="#00BDA6"></path>
                <path d="M69.617,13.992 C88.598,17.059 103.55,32.19 106.346,51.26 C106.426,51.807 106.934,52.185 107.481,52.105 C108.027,52.024 108.405,51.516 108.325,50.97 C105.397,31.031 89.782,15.228 69.937,12.018 C69.391,11.93 68.878,12.3 68.79,12.846 C68.702,13.391 69.072,13.904 69.618,13.992 L69.617,13.992" id="Fill-40" fill="#00BDA6"></path>
                <path d="M43.106,55.16 C42.536,54.442 41.29,54.237 40.784,54.256 C40.397,54.27 40.056,54.337 39.75,54.506 C39.41,54.221 38.876,54.073 38.825,54.166 C38.764,54.28 38.904,54.883 39.053,55.211 C38.942,55.423 38.845,55.843 38.845,56.184 C38.845,56.504 38.92,56.76 39.042,56.971 C38.65,57.02 38.233,57.144 37.838,57.409 C38.125,57.416 38.363,57.453 38.527,57.499 L38.492,57.53 L38.42,57.595 L38.25,57.76 L38.241,57.77 L38.047,58.009 C38.523,57.845 38.898,57.819 38.984,57.875 C39.07,57.931 39.39,57.896 39.527,57.692 L39.626,57.575 C39.637,58.114 39.823,58.734 39.823,58.734 L39.829,58.757 L39.942,59.107 L39.967,59.16 L39.964,59.161 L39.99,59.205 L40.006,59.23 L40.069,59.267 L40.078,59.263 L40.132,59.234 L40.154,59.205 L40.176,59.174 L40.172,59.171 L40.204,59.112 L40.228,59.047 L40.329,58.849 L41.178,58.864 L41.271,59.131 L41.297,59.183 L41.293,59.185 L41.319,59.229 L41.335,59.254 L41.398,59.291 L41.408,59.287 L41.462,59.258 L41.483,59.229 L41.506,59.198 L41.501,59.195 L41.533,59.136 L41.557,59.071 L41.655,58.783 L41.659,58.772 L41.661,58.767 C41.661,58.767 41.71,58.608 41.762,58.381 L41.859,58.456 L41.923,58.495 L41.942,58.504 L41.953,58.512 L41.993,58.53 L41.999,58.533 L42.002,58.534 L42.035,58.548 L42.041,58.55 L42.087,58.565 L42.105,58.569 L42.154,58.58 L42.188,58.588 L42.205,58.587 L42.379,58.588 L42.315,58.587 L42.415,58.586 L42.654,58.502 L42.711,58.464 L42.739,58.442 L42.765,58.419 L42.784,58.402 L42.81,58.374 L42.855,58.32 C42.908,58.246 42.956,58.161 42.969,58.065 C43.028,57.593 42.693,57.394 42.483,57.378 C42.151,57.353 42.019,57.502 41.968,57.595 L41.902,57.796 C41.898,57.995 42.059,58.16 42.261,58.164 L42.263,58.163 L42.385,58.141 L42.433,58.119 L42.472,58.094 L42.523,58.06 L42.508,58.096 L42.496,58.119 L42.493,58.125 L42.482,58.14 L42.442,58.184 L42.338,58.24 L42.22,58.259 L42.161,58.255 L42.133,58.251 L42.106,58.244 L42.054,58.227 L42.009,58.208 L41.94,58.17 L41.821,58.087 C41.853,57.902 41.878,57.702 41.879,57.515 C42.347,57.296 42.656,56.897 42.662,56.252 C42.665,55.996 42.619,55.665 42.544,55.452 L42.595,55.439 L42.726,55.398 L42.791,55.374 L42.853,55.349 L42.962,55.3 L43.004,55.278 L43.037,55.259 L43.056,55.245 L43.063,55.24 L43.062,55.238 L43.054,55.242 L43.043,55.248 L43.106,55.16" id="Fill-41" fill="#00BDA6"></path>
                <path d="M74.585,57.671 L70.834,57.671 C70.552,57.671 70.323,57.442 70.323,57.16 L70.323,57.157 C70.323,56.875 70.552,56.647 70.834,56.647 L74.585,56.647 C74.867,56.647 75.095,56.875 75.095,57.157 L75.095,57.16 C75.095,57.442 74.867,57.671 74.585,57.671" id="Fill-42" fill="#00BDA6"></path>
                <path d="M81.735,57.671 L77.984,57.671 C77.702,57.671 77.473,57.442 77.473,57.16 L77.473,57.157 C77.473,56.875 77.702,56.647 77.984,56.647 L81.735,56.647 C82.017,56.647 82.245,56.875 82.245,57.157 L82.245,57.16 C82.245,57.442 82.017,57.671 81.735,57.671" id="Fill-43" fill="#00BDA6"></path>
                <path d="M88.885,57.671 L85.134,57.671 C84.852,57.671 84.623,57.442 84.623,57.16 L84.623,57.157 C84.623,56.875 84.852,56.647 85.134,56.647 L88.885,56.647 C89.167,56.647 89.396,56.875 89.396,57.157 L89.396,57.16 C89.396,57.442 89.167,57.671 88.885,57.671" id="Fill-44" fill="#00BDA6"></path>
                <path d="M65.404,69.669 L88.159,69.669 C88.435,69.669 88.659,69.445 88.659,69.169 C88.659,68.893 88.435,68.669 88.159,68.669 L65.404,68.669 C65.127,68.669 64.904,68.893 64.904,69.169 C64.904,69.445 65.127,69.669 65.404,69.669" id="Fill-45" fill="#00BDA6"></path>
                <path d="M65.404,74.042 L77.51,74.042 C77.786,74.042 78.01,73.818 78.01,73.542 C78.01,73.266 77.786,73.042 77.51,73.042 L65.404,73.042 C65.127,73.042 64.904,73.266 64.904,73.542 C64.904,73.818 65.127,74.042 65.404,74.042" id="Fill-46" fill="#00BDA6"></path>
                <path d="M38.526,64.627 L57.657,64.627 L57.657,75.851 L38.526,75.851 L38.526,64.627 L38.526,64.627 Z" id="Fill-47" fill="#DAF6F2"></path>
                <path d="M59.679,75.851 L59.679,75.351 L39.026,75.351 L39.026,63.127 L59.179,63.127 L59.179,75.851 L59.679,75.851 L59.679,75.351 L59.679,75.851 L60.179,75.851 L60.179,62.627 C60.179,62.495 60.126,62.367 60.033,62.273 C59.94,62.18 59.811,62.127 59.679,62.127 L38.526,62.127 C38.394,62.127 38.265,62.18 38.172,62.273 C38.079,62.367 38.026,62.495 38.026,62.627 L38.026,75.851 C38.026,75.985 38.078,76.11 38.172,76.205 C38.267,76.299 38.392,76.351 38.526,76.351 L59.679,76.351 C59.813,76.351 59.938,76.299 60.033,76.205 C60.127,76.11 60.179,75.985 60.179,75.851 L59.679,75.851" id="Fill-48" fill="#00BDA6"></path>
                <path d="M38.526,81.367 L86.137,81.367 L86.137,92.591 L38.526,92.591 L38.526,81.367 L38.526,81.367 Z" id="Fill-49" fill="#08DABB"></path>
                <path d="M39.34,45.104 C39.34,45.658 38.886,46.107 38.326,46.107 C37.766,46.107 37.312,45.658 37.312,45.104 C37.312,44.55 37.766,44.102 38.326,44.102 C38.886,44.102 39.34,44.55 39.34,45.104" id="Fill-50" fill="#08DABB"></path>
                <path d="M39.34,45.104 L38.84,45.104 C38.839,45.378 38.614,45.607 38.326,45.607 C38.038,45.607 37.812,45.378 37.812,45.104 C37.812,44.831 38.038,44.602 38.326,44.601 C38.614,44.602 38.839,44.831 38.84,45.104 L39.84,45.104 C39.839,44.27 39.158,43.603 38.326,43.602 C37.494,43.603 36.813,44.27 36.812,45.104 C36.813,45.939 37.494,46.606 38.326,46.607 C39.158,46.606 39.839,45.939 39.84,45.104 L39.34,45.104" id="Fill-51" fill="#00BDA6"></path>
                <path d="M43.27,45.104 C43.27,45.658 42.816,46.107 42.256,46.107 C41.696,46.107 41.242,45.658 41.242,45.104 C41.242,44.55 41.696,44.102 42.256,44.102 C42.816,44.102 43.27,44.55 43.27,45.104" id="Fill-52" fill="#08DABB"></path>
                <path d="M43.27,45.104 L42.77,45.104 C42.769,45.378 42.544,45.607 42.256,45.607 C41.968,45.607 41.742,45.378 41.741,45.104 C41.742,44.831 41.968,44.602 42.256,44.601 C42.544,44.602 42.769,44.831 42.77,45.104 L43.77,45.104 C43.769,44.27 43.088,43.603 42.256,43.602 C41.424,43.603 40.742,44.27 40.742,45.104 C40.742,45.939 41.423,46.606 42.256,46.607 C43.088,46.606 43.769,45.939 43.77,45.104 L43.27,45.104" id="Fill-53" fill="#00BDA6"></path>
                <path d="M47.199,45.104 C47.199,45.658 46.746,46.107 46.185,46.107 C45.625,46.107 45.171,45.658 45.171,45.104 C45.171,44.55 45.625,44.102 46.185,44.102 C46.746,44.102 47.199,44.55 47.199,45.104" id="Fill-54" fill="#08DABB"></path>
                <path d="M47.199,45.104 L46.699,45.104 C46.699,45.378 46.473,45.607 46.185,45.607 C45.897,45.607 45.672,45.378 45.671,45.104 C45.672,44.831 45.897,44.602 46.185,44.601 C46.473,44.602 46.699,44.831 46.699,45.104 L47.699,45.104 C47.698,44.27 47.017,43.603 46.185,43.602 C45.353,43.603 44.672,44.27 44.671,45.104 C44.672,45.939 45.353,46.606 46.185,46.607 C47.017,46.606 47.698,45.939 47.699,45.104 L47.199,45.104" id="Fill-55" fill="#00BDA6"></path>
                <path d="M88.136,92.591 L88.136,92.091 L39.026,92.091 L39.026,79.867 L87.636,79.867 L87.636,92.591 L88.136,92.591 L88.136,92.091 L88.136,92.591 L88.636,92.591 L88.636,79.367 C88.636,79.233 88.584,79.108 88.49,79.013 C88.395,78.919 88.27,78.867 88.136,78.867 L38.526,78.867 C38.394,78.867 38.265,78.92 38.172,79.013 C38.079,79.106 38.026,79.235 38.026,79.367 L38.026,92.591 C38.026,92.724 38.078,92.85 38.172,92.944 C38.267,93.039 38.392,93.091 38.526,93.091 L88.136,93.091 C88.27,93.091 88.395,93.039 88.49,92.944 C88.584,92.85 88.636,92.724 88.636,92.591 L88.136,92.591" id="Fill-56" fill="#00BDA6"></path>
            </g>
        </g>
    </g>
</svg>